<?xml version="1.0" encoding="UTF-8" standalone="no"?>
<svg width="101px" height="82px" viewBox="0 0 101 82" version="1.1" xmlns="http://www.w3.org/2000/svg" xmlns:xlink="http://www.w3.org/1999/xlink" xmlns:sketch="http://www.bohemiancoding.com/sketch/ns">
    <title>Slice 6</title>
    <description>Created with Sketch (http://www.bohemiancoding.com/sketch)</description>
    <defs></defs>
    <g id="Page 1" fill="rgb(206,206,206)" fill-rule="evenodd">
        <g id="Logos">
            <path d="M15.2093857,30.5315463 C15.7866265,21.8186672 16.9411079,10.8791634 19.3462776,2.1662843 C19.634898,1.00456709 20.5007591,0.617328015 21.4628269,0.326898711 C21.9438609,0.133279175 22.1362745,0.326898711 22.0400677,0.810947551 C19.4424844,14.1706955 18.7690369,30.7251659 18.8652437,38.4699473 C18.9614505,47.5700655 19.5386912,54.1531297 21.4628269,54.9276079 C22.5146664,55.3509806 24.128722,53.408532 25.2991577,49.8125078 C24.8968145,47.4642681 25.0078498,44.5080571 25.8883392,40.8901915 C28.3897157,30.7251659 33.8735026,26.7559654 37.8179809,29.1762096 C38.9724623,29.853878 39.8383234,31.1124049 40.4155641,32.4677417 C40.8965981,31.4028343 41.8586659,30.8219756 42.6283202,30.6283561 C43.1093542,30.5315463 43.3017678,30.7251659 43.205561,31.2092147 C40.7041845,41.5678599 41.5700456,53.2818418 43.7828017,53.7658907 C44.805287,54.0033277 46.9208992,51.7172853 48.0794473,47.754139 C47.6876676,42.6891774 48.2999894,36.50923 49.555209,31.1124049 C49.9400361,29.5634487 50.8058972,28.2081119 52.0565854,28.0144924 C52.730033,27.9176826 52.8262397,27.9176826 52.730033,28.595351 C51.4793447,34.8879859 50.6134836,46.9892069 52.6338262,52.0233148 C53.4034805,53.9595102 54.3655484,54.9276079 55.3276162,54.7339883 C56.8669248,54.443559 58.3100267,51.539266 58.9834742,44.6657725 C59.4645081,39.5348548 59.7531285,35.0816054 60.3303692,32.6613612 C60.9076099,30.4347366 61.773471,29.4666389 63.2165728,29.1762096 C63.9862271,28.98259 63.9862271,29.2730194 63.9862271,29.6602584 C62.5431253,41.2774306 62.9279525,54.7339883 63.9862271,65.0926335 C64.7558814,72.7406052 62.2545049,77.0970448 59.1758877,79.517289 C53.7883076,83.7769188 48.8817615,79.6140987 47.5348664,73.3214638 C46.8614189,70.1267415 47.2462461,68.2873559 47.72728,67.3192582 C48.0159004,66.7383996 48.5931411,66.6415898 48.7855547,67.5128777 C50.902104,76.4193764 55.423823,79.4204792 58.2138199,77.4842838 C60.3303692,76.0321373 60.7151963,71.9661271 60.1379556,65.0926335 C59.7531285,60.8330037 59.5607149,56.4765642 59.4645081,52.3137441 C58.5024402,54.7339883 57.3479588,56.0893251 56.0972705,56.960613 C54.1731348,58.3159498 51.8641719,57.9287107 50.4210701,55.9925153 C49.8608678,55.2298444 49.4050721,54.2655699 49.0449843,53.1454038 C47.9037047,55.984901 45.7678962,57.2498427 43.205561,56.2829446 C40.8003913,55.4116567 39.4534962,53.2818418 38.7800487,49.9903097 C37.6255673,55.2180372 35.027984,58.5095693 30.2176446,56.6701837 C28.8965483,56.1804135 27.6633936,55.222896 26.736093,53.7519483 C25.6316029,56.7603884 23.7343239,58.2947258 21.2704134,57.4446619 C17.806969,56.2829446 16.1714536,53.1850321 15.4017993,48.7317827 C14.4397314,54.7339883 11.457321,58.6063791 6.35836126,56.960613 C2.51008975,55.702086 -0.760941035,50.8615976 1.25940151,40.8901915 C3.47215763,29.9506877 9.24456489,25.4006286 12.9966296,28.1113021 C13.8624907,28.6921607 14.632145,29.5634487 15.2093857,30.5315463 Z M72.0675973,33.2422198 C75.1462145,33.4358394 78.6096589,31.0155952 80.5337946,28.4017314 C80.9186218,27.8208728 81.4958625,27.9176826 81.9768964,28.4017314 C83.4199983,29.9506877 83.8048254,31.3060245 83.1313779,32.8549808 C79.8603471,40.0189036 78.0324181,53.6690809 81.6882761,55.314847 C83.1912784,56.0265752 85.994258,53.7950224 88.0065769,47.4931846 C87.9724309,46.927165 87.9513215,46.339535 87.9417173,45.7306799 C87.8455105,41.0838111 88.6151648,36.3401324 89.4810259,33.7262687 C89.9620598,32.1773124 91.1165413,31.4028343 91.9824024,31.2092147 C92.4634363,31.1124049 92.7520567,31.2092147 92.6558499,31.5964538 C90.346887,43.0200064 91.693782,54.2499395 93.7141245,54.9276079 C95.4458467,55.5084665 98.5244639,51.4424562 99.5827386,45.1498213 C99.6789454,44.7625822 99.9675658,44.6657725 100.159979,45.0530115 C100.352393,45.4402506 100.641013,46.0211092 100.641013,47.1828264 C100.73722,53.9595102 97.2737757,58.7031888 93.2330906,57.2510423 C90.8656676,56.3794834 89.4686123,54.6012214 88.7091237,51.9999779 C87.2890428,57.101909 84.4591227,59.0731913 81.4958625,58.0255205 C75.819662,56.0893251 73.7993195,47.1828264 78.0324181,34.9847957 C76.300696,35.8560836 74.472767,36.1465129 72.7410448,36.1465129 L71.9713905,36.1465129 C71.6827702,43.0200064 70.3358751,52.3137441 71.1055294,58.5095693 C71.2017362,59.0904279 70.9131158,59.2840474 70.2396683,59.0904279 C68.8927733,58.6063791 67.5458783,57.1542325 67.4496715,54.05632 C67.2572579,48.3445437 69.0851869,41.8582892 69.470014,35.4688445 C67.8344986,34.5975566 66.5838104,32.9517905 66.6800172,29.9506877 C66.8724308,25.4006286 69.1813937,23.6580528 70.3358751,24.3357212 C71.5865634,25.0133896 72.0675973,28.595351 72.0675973,33.2422198 Z M38.6838419,38.2763278 C38.8762555,33.9198882 37.8179809,31.3060245 36.374879,30.9187854 C34.4507433,30.4347366 30.4100582,36.2433227 29.2555767,43.4072455 C28.0048885,51.1520269 29.9290243,54.443559 31.6607464,54.8307981 C34.0659161,55.314847 38.202808,49.1190218 38.6838419,38.2763278 Z M89.7696462,27.5304435 C89.9620598,26.078297 91.0203345,24.5293407 92.2710227,24.3357212 C93.1368838,24.2389114 94.1951585,24.9165798 94.3875721,26.3687263 C94.5799856,28.2081119 93.3292974,29.6602584 91.9824024,29.853878 C90.5393006,30.0474975 89.5772327,29.1762096 89.7696462,27.5304435 Z M14.5359382,37.5986594 C14.4397314,32.8549808 12.804216,30.241117 11.7459414,30.0474975 C9.62939204,29.5634487 6.0697409,35.7592738 5.01146623,43.3104357 C3.85698478,51.2488367 6.16594768,55.0244177 7.99387665,55.2180372 C10.4952531,55.5084665 14.8245586,47.9573046 14.5359382,37.5986594 Z M14.5359382,37.5986594" id="dayri" fill="rgb(30,30,30)"></path>
        </g>
    </g>
</svg>