<?xml version="1.0" encoding="UTF-8" standalone="no"?>
<svg width="90px" height="64px" viewBox="0 0 90 64" version="1.1" xmlns="http://www.w3.org/2000/svg" xmlns:xlink="http://www.w3.org/1999/xlink" xmlns:sketch="http://www.bohemiancoding.com/sketch/ns">
    <title>Slice 5</title>
    <description>Created with Sketch (http://www.bohemiancoding.com/sketch)</description>
    <defs></defs>
    <g id="Page 1" fill="rgb(206,206,206)" fill-rule="evenodd">
        <g id="Logos">
            <path d="M31.2204008,47.0640093 L31.1731844,47.1346043 C29.9760515,48.9141974 28.252206,50.4012324 26.0015962,51.5957538 C23.7509864,52.7902752 20.7103144,53.387527 16.8794892,53.387527 C14.72465,53.387527 12.6416701,53.0828067 10.6304868,52.473357 C8.61930359,51.8639073 6.82363121,50.91318 5.2434158,49.6211467 C3.6632004,48.3291133 2.39425858,46.671435 1.43655227,44.648062 C0.47884597,42.6246889 0,40.1747379 0,37.2981353 L0,32.7638522 L10.1995211,32.7638522 L10.1995211,35.1041273 C10.1995211,36.3717827 10.2952903,37.5419086 10.4868316,38.6145401 C10.6783729,39.6871715 11.013565,40.6013324 11.4924182,41.35705 C11.9712713,42.1127676 12.6296846,42.7100194 13.4676776,43.1488232 C14.3056706,43.587627 15.3950452,43.8070256 16.735834,43.8070256 C18.2202788,43.8070256 19.3695091,43.5388717 20.1835595,43.002556 C20.9976098,42.4662402 21.5841961,41.771478 21.943336,40.9182484 C22.3024759,40.0650188 22.5179565,39.1386692 22.5897845,38.1391717 C22.6616125,37.1396742 22.6975259,36.1767581 22.6975259,35.2503945 L22.6975259,0 L33.9744613,0 L33.9744613,16.1773519 C35.1200042,15.3958365 36.374763,14.7374347 37.7387603,14.2021316 C40.1720437,13.2471853 42.903239,12.7697193 45.9324286,12.7697193 C46.2611,12.7697193 46.5864094,12.7753403 46.9083708,12.7865828 L46.9034318,12.7768322 L62.7773344,12.7768322 L71.1811652,38.7553442 L71.3248204,38.7553442 L79.4413408,12.7768322 L90,12.7768322 L74.4852354,55.4138816 C73.3838732,58.4960934 71.8515661,60.6976402 69.8882682,62.0185881 C67.9249702,63.339536 65.1955482,64 61.6999202,64 C60.6464433,64 59.6049533,63.9633076 58.575419,63.8899216 C57.5458847,63.8165356 56.5043947,63.7309199 55.4509178,63.6330719 L55.4509178,55.0469535 C56.4086241,55.1448015 57.3902583,55.242648 58.39585,55.340496 C59.4014416,55.438344 60.4070181,55.4628056 61.4126097,55.4138816 C62.7533986,55.2671096 63.747004,54.7289537 64.3934557,53.7993978 C65.0399075,52.8698419 65.3631285,51.8424534 65.3631285,50.7172015 C65.3631285,49.8854935 65.2194747,49.1027213 64.9321628,48.3688614 L62.8689409,44.2956821 C62.174911,45.4056191 61.3711199,46.4174778 60.4575685,47.3312564 C58.7195089,49.0697484 56.6214542,50.4042046 54.1633413,51.3346651 C51.7052285,52.2651256 48.9616184,52.7303488 45.9324288,52.7303488 C42.9032393,52.7303488 40.1720437,52.2651256 37.7387603,51.3346651 C35.3054769,50.4042046 33.2198367,49.0697484 31.4817771,47.3312564 C31.3936298,47.2430872 31.3065043,47.1540048 31.2204008,47.0640093 Z M31.2204008,47.0640093" id="Path" fill="rgb(30,30,30)"></path>
        </g>
    </g>
</svg>