<?xml version="1.0" encoding="UTF-8" standalone="no"?>
<svg width="48px" height="81px" viewBox="0 0 48 81" version="1.1" xmlns="http://www.w3.org/2000/svg" xmlns:xlink="http://www.w3.org/1999/xlink" xmlns:sketch="http://www.bohemiancoding.com/sketch/ns">
    <title>Slice 2</title>
    <description>Created with Sketch (http://www.bohemiancoding.com/sketch)</description>
    <defs></defs>
    <g id="Page 1" fill="rgb(206,206,206)" fill-rule="evenodd">
        <g id="Logos">
            <path d="M6.4928641,80.85 C6.4928641,80.85 5.79031392,74.8048339 4.14421477,68.7395588 C2.54256076,62.8380487 0.0071503458,57.0023592 0.0071503458,57.0023592 C0.0071503458,57.0023592 4.18140951,50.4897552 6.4928641,46.0759321 C9.17218597,40.9596504 10.2038654,37.4301345 13.036797,30.3782392 C18.8721246,15.5086703 20.9882551,0.85 20.9882551,0.85 L23.1880705,0.85 L23.1880705,55.1765576 C21.8055578,55.5478896 20.7881869,56.8053785 20.7881869,58.2995005 C20.7881869,60.0857366 22.2422554,61.5337668 24.0359399,61.5337668 C24.5280564,61.5337668 24.9946087,61.4247681 25.4125807,61.2296912 L26.4458007,62.2629112 L27.3605893,61.3481225 L26.4621175,60.4496507 C26.9731746,59.8781736 27.2836929,59.1249492 27.2836929,58.2995005 C27.2836929,56.7450955 26.1825707,55.4468035 24.7147365,55.1359835 L24.7147365,0.85 L26.9199446,0.85 C26.9199446,0.85 29.2126536,15.3653737 35.1042158,30.3782392 C37.9122698,37.5403133 39.0910084,40.9440105 41.7847297,46.0759321 C44.0302519,50.3539708 48.0693121,57.005794 48.0064246,57.0023592 C48.0064246,57.0023593 45.9028155,62.9786011 44.3393072,68.7395588 C42.6550623,74.9453863 41.7847297,80.8499999 41.7847297,80.85 Z M6.4928641,80.85" id="Quarno" fill="rgb(30,30,30)"></path>
        </g>
    </g>
</svg>