<?xml version="1.0" encoding="UTF-8" standalone="no"?>
<svg width="140px" height="49px" viewBox="0 0 140 49" version="1.1" xmlns="http://www.w3.org/2000/svg" xmlns:xlink="http://www.w3.org/1999/xlink" xmlns:sketch="http://www.bohemiancoding.com/sketch/ns">
    <title>Slice 3</title>
    <description>Created with Sketch (http://www.bohemiancoding.com/sketch)</description>
    <defs></defs>
    <g id="Page 1" fill="rgb(206,206,206)" fill-rule="evenodd">
        <g id="Logos">
            <path d="M17.3916773,0.79739777 L19.0647461,0.79739777 L12.2529663,46.2992565 L12.1932138,46.894052 C12.0139565,47.3104089 11.7749466,47.4888476 11.4761844,47.5483271 L9.92262057,47.964684 L9.08608621,48.1431227 L8.36905676,48.3215613 L8.24955186,48.3215613 L7.17400768,41.1840149 L0.9,0.79739777 L5.9789586,0.79739777 L7.17400768,8.41078067 L11.7151942,38.4479554 L12.2529663,34.8791822 Z M28.7446436,2.52230483 L28.7446436,22.1505576 L35.1979087,20.5446097 L35.1979087,22.2100372 L28.7446436,23.8159851 L28.7446436,46.6561338 L37.2892446,46.6561338 L37.2892446,48.3215613 L28.7446436,48.3215613 L26.4740504,48.3215613 L23.665685,48.3215613 L23.665685,0.79739777 L26.4740504,0.79739777 L28.7446436,0.79739777 L37.2892446,0.79739777 L37.2892446,2.52230483 Z M46.3118651,2.52230483 L46.3118651,22.1505576 L52.7651302,20.5446097 L52.7651302,22.2100372 L46.3118651,23.8159851 L46.3118651,46.6561338 L54.8564661,46.6561338 L54.8564661,48.3215613 L46.3118651,48.3215613 L44.0412719,48.3215613 L41.2329065,48.3215613 L41.2329065,0.79739777 L44.0412719,0.79739777 L46.3118651,0.79739777 L54.8564661,0.79739777 L54.8564661,2.52230483 Z M63.9985915,2.22490706 L63.9985915,25.0055762 L67.4044814,24.2918216 C70.2725992,23.6375465 70.8701238,22.6858736 70.8701238,20.3066914 L70.8701238,4.78252788 C70.3921041,2.58178439 68.3605207,2.22490706 66.8069569,2.22490706 Z M75.4710627,41.0650558 L76.1880922,44.7527881 C76.3673496,46.1208178 76.427102,47.1319703 76.9051216,47.429368 L72.48344,48.5 C72.0651729,48.3215613 71.7664106,47.964684 71.5871532,47.3104089 L71.168886,44.5743494 C70.6908664,42.0167286 69.8543321,37.1988848 68.4202732,27.8605948 C67.8825011,26.3736059 67.5239863,25.8977695 65.9106701,26.1951673 C65.8509176,26.2546468 65.7314127,26.2546468 65.6716603,26.2546468 C65.0143833,26.4330855 64.5363636,26.4330855 63.9985915,26.6115242 L63.9985915,46.239777 C63.9985915,46.7750929 63.7595817,47.0724907 63.2218096,47.2509294 L61.6682458,47.6672862 L60.8317115,47.8457249 L59.7561673,48.1431227 L58.9196329,48.3215613 L58.9196329,0.79739777 L62.5047802,0.79739777 L66.5679471,0.856877323 C69.9140845,0.856877323 71.8859155,1.92750929 73.0809646,2.8197026 L73.6187367,3.17657993 C73.6784891,3.17657993 73.7382416,3.23605948 73.797994,3.29553903 C76.0088348,5.0204461 75.9490824,7.22118959 75.9490824,12.098513 L75.9490824,20.366171 L75.9490824,20.5446097 C75.9490824,23.5780669 73.9772514,23.9349442 70.8103713,24.8866171 C70.7506189,24.9460967 70.6908664,24.9460967 70.5713615,24.9460967 L70.8701238,25.0650558 C72.0054204,25.4814126 72.9017072,26.1356877 73.3797268,28.9312268 C74.3357661,34.6412639 74.9930431,38.5074349 75.4710627,41.0650558 Z M83.4778916,33.7490706 L91.6639778,31.6672862 L87.7203158,5.37732342 Z M91.9627401,33.3327138 L83.1791293,35.5334572 L81.1475459,48.3215613 L79.3549723,48.3215613 L86.3460094,2.93866171 L86.4655143,2.28438662 C86.5850192,1.98698885 86.824029,1.80855019 87.1825437,1.63011152 L88.7361076,1.2732342 L90.2299189,0.856877323 L91.0664533,0.678438662 L91.7834827,0.5 L91.9029876,0.5 L93.1577892,8.47026022 L99.5513017,48.3215613 L94.3528382,48.3215613 Z M108.932437,2.22490706 L108.932437,25.0055762 L112.338327,24.2918216 C115.206445,23.6375465 115.803969,22.6858736 115.803969,20.3066914 L115.803969,4.78252788 C115.32595,2.58178439 113.294366,2.22490706 111.740802,2.22490706 Z M121.121938,44.7527881 C121.301195,46.1208178 121.360948,47.1319703 121.838967,47.429368 L117.417286,48.5 C116.999018,48.3215613 116.700256,47.964684 116.520999,47.3104089 L116.102732,44.5743494 C115.624712,42.0167286 114.788178,37.1988848 113.354119,27.8605948 C112.816347,26.3736059 112.457832,25.8977695 110.844516,26.1951673 C110.784763,26.2546468 110.665258,26.2546468 110.605506,26.2546468 C109.948229,26.4330855 109.470209,26.4330855 108.932437,26.6115242 L108.932437,46.239777 C108.932437,46.7750929 108.693427,47.0724907 108.155655,47.2509294 L106.602091,47.6672862 L105.765557,47.8457249 L104.690013,48.1431227 L103.853478,48.3215613 L103.853478,0.79739777 L107.438626,0.79739777 L111.501793,0.856877323 C114.84793,0.856877323 116.819761,1.92750929 118.01481,2.8197026 L118.552582,3.17657993 C118.612335,3.17657993 118.672087,3.23605948 118.73184,3.29553903 C120.94268,5.0204461 120.882928,7.22118959 120.882928,12.098513 L120.882928,20.366171 L120.882928,20.5446097 C120.882928,23.5780669 118.911097,23.9349442 115.744217,24.8866171 C115.684464,24.9460967 115.624712,24.9460967 115.505207,24.9460967 L115.803969,25.0650558 C116.939266,25.4814126 117.835553,26.1356877 118.313572,28.9312268 C119.269612,34.6412639 119.926889,38.5074349 120.404908,41.0650558 Z M131.279855,2.52230483 L131.279855,22.1505576 L137.73312,20.5446097 L137.73312,22.2100372 L131.279855,23.8159851 L131.279855,46.6561338 L139.824456,46.6561338 L139.824456,48.3215613 L131.279855,48.3215613 L129.009262,48.3215613 L126.200896,48.3215613 L126.200896,0.79739777 L129.009262,0.79739777 L131.279855,0.79739777 L139.824456,0.79739777 L139.824456,2.52230483 Z M131.279855,2.52230483" id="Veerare" fill="rgb(30,30,30)"></path>
        </g>
    </g>
</svg>