<?xml version="1.0" encoding="UTF-8" standalone="no"?>
<svg width="118px" height="56px" viewBox="0 0 118 56" version="1.1" xmlns="http://www.w3.org/2000/svg" xmlns:xlink="http://www.w3.org/1999/xlink" xmlns:sketch="http://www.bohemiancoding.com/sketch/ns">
    <title>Slice 4</title>
    <description>Created with Sketch (http://www.bohemiancoding.com/sketch)</description>
    <defs></defs>
    <g id="Page 1" fill="rgb(206,206,206)" fill-rule="evenodd">
        <g id="Logos">
            <g id="Veew" fill="rgb(30,30,30)">
                <path d="M17.8883225,42.2350191 C13.2991323,39.2299187 9.13320732,36.0107534 5.46652827,32.7908258 C4.18223534,31.6630123 3.05161474,30.6151651 2.08422984,29.6739258 C1.74482901,29.343698 1.44984785,29.0501315 1.20048443,28.7965564 C1.04967484,28.6431996 0.946891011,28.5365049 0.893332384,28.4798022 L0.440134362,28 L0.893332384,27.5201978 C0.946891011,27.4634951 1.04967484,27.3568004 1.20048443,27.2034436 C1.44984785,26.9498685 1.74482901,26.656302 2.08422984,26.3260742 C3.05161474,25.3848349 4.18223534,24.3369877 5.46652827,23.2091742 C9.13320732,19.9892466 13.2991323,16.7700813 17.8883225,13.7649809 C31.0215659,5.16505088 44.92742,0 59,0 C73.07258,0 86.9784341,5.16505088 100.111678,13.7649809 C104.700868,16.7700813 108.866793,19.9892466 112.533472,23.2091742 C113.817765,24.3369877 114.948385,25.3848349 115.91577,26.3260742 C116.255171,26.656302 116.550152,26.9498685 116.799516,27.2034436 C116.950325,27.3568004 117.053109,27.4634951 117.106668,27.5201978 L117.559866,28 L117.106668,28.4798022 C117.053109,28.5365049 116.950325,28.6431996 116.799516,28.7965564 C116.550152,29.0501315 116.255171,29.343698 115.91577,29.6739258 C114.948385,30.6151651 113.817765,31.6630123 112.533472,32.7908258 C108.866793,36.0107534 104.700868,39.2299187 100.111678,42.2350191 C86.9784341,50.8349491 73.07258,56 59,56 C44.92742,56 31.0215659,50.8349491 17.8883225,42.2350191 Z M116.595238,28 C116.595238,28 90.8089732,0.7 59,0.7 C27.1910268,0.7 1.4047619,28 1.4047619,28 C1.4047619,28 27.1910268,55.3 59,55.3 C90.8089732,55.3 116.595238,28 116.595238,28 Z M116.595238,28" id="Oval 19"></path>
                <path d="M1.7519621,28 L32.656724,28" id="Line" stroke="rgb(0,0,0)" stroke-width="1" stroke-linecap="square"></path>
                <path d="M82.724408,39.1602608 C84.1790145,35.7532539 84.9880952,31.9758822 84.9880952,28 C84.9880952,24.0241178 84.1790145,20.2467461 82.724408,16.8397392 L117.662857,28 Z M115.361619,28 L83.9223476,17.9574688 C85.0851811,21.1311974 85.6904762,24.5214227 85.6904762,28 C85.6904762,31.4785773 85.0851811,34.8688026 83.9223476,38.0425312 Z M115.361619,28" id="Triangle 22"></path>
                <path d="M32.3095238,28 C32.3095238,12.5440272 44.2507463,0 59,0 C73.7492537,0 85.6904762,12.5440272 85.6904762,28 C85.6904762,43.4559728 73.7492537,56 59,56 C44.2507463,56 32.3095238,43.4559728 32.3095238,28 Z M84.9880952,28 C84.9880952,12.9226256 73.3528294,0.7 59,0.7 C44.6471706,0.7 33.0119048,12.9226256 33.0119048,28 C33.0119048,43.0773744 44.6471706,55.3 59,55.3 C73.3528294,55.3 84.9880952,43.0773744 84.9880952,28 Z M84.9880952,28" id="Oval 20"></path>
            </g>
        </g>
    </g>
</svg>