<?xml version="1.0" encoding="UTF-8" standalone="no"?>
<svg width="94px" height="49px" viewBox="0 0 94 49" version="1.1" xmlns="http://www.w3.org/2000/svg" xmlns:xlink="http://www.w3.org/1999/xlink" xmlns:sketch="http://www.bohemiancoding.com/sketch/ns">
    <title>Slice 1</title>
    <description>Created with Sketch (http://www.bohemiancoding.com/sketch)</description>
    <defs></defs>
    <g id="Page 1" fill="rgb(206,206,206)" fill-rule="evenodd">
        <g id="Logos">
            <path d="M14.8982458,32.695122 L23.0790672,0.5 L29.4273847,0.5 L17.3197689,48.4349593 L12.4767226,48.4349593 L0.5,0.5 L6.84831745,0.5 Z M37.7636417,48.5 L31.611664,48.5 L31.611664,0.56504065 L37.7636417,0.56504065 Z M56.2441174,32.695122 L64.4249389,0.5 L70.7732563,0.5 L58.6656405,48.4349593 L53.8225942,48.4349593 L41.8458716,0.5 L48.1941891,0.5 Z M82.4472885,48.4349593 C80.1348314,48.4349593 78.2805304,48.0230393 76.8843299,47.199187 C75.4881294,46.3753346 74.4409947,45.5298146 73.7428945,44.6626016 C71.9103813,42.3211265 70.9941385,39.0257665 70.9941385,34.7764228 L70.9941385,14.1585366 C70.9941385,9.90919285 71.9103813,6.61383285 73.7428945,4.27235772 C74.0919446,3.83875122 74.5173431,3.40515122 75.0191026,2.97154472 C75.5208622,2.53793821 76.1316908,2.13685821 76.8516066,1.76829268 C77.5715225,1.39972715 78.3895965,1.09620715 79.3058531,0.857723577 C80.2221097,0.61924 81.2692443,0.5 82.4472885,0.5 C84.8033769,0.5 86.6685855,0.91192 88.0429704,1.73577236 C89.4173553,2.55962472 90.4535823,3.40514472 91.1516826,4.27235772 C92.9841957,6.61383285 93.9004386,9.90919285 93.9004386,14.1585366 L93.9004386,34.7764228 C93.9004386,39.0257665 92.9841957,42.3211265 91.1516826,44.6626016 C90.4535823,45.5298146 89.4173553,46.3753346 88.0429704,47.199187 C86.6685855,48.0230393 84.8033769,48.4349593 82.4472885,48.4349593 Z M82.4472885,6.67886179 C81.9673446,6.67886179 81.4328696,6.72222179 80.8438475,6.80894309 C80.2548254,6.89566439 79.6767198,7.16666439 79.1095134,7.62195122 C78.5423069,8.07723805 78.0732778,8.81435805 77.7024121,9.83333333 C77.3315463,10.8523086 77.1461162,12.2940286 77.1461162,14.1585366 L77.1461162,34.7764228 C77.1461162,36.6842914 77.3315463,38.1476914 77.7024121,39.1666667 C78.0732778,40.185642 78.5423069,40.922762 79.1095134,41.3780488 C79.6767198,41.8333356 80.2548254,42.1043356 80.8438475,42.1910569 C81.4328696,42.2777782 81.9673446,42.3211382 82.4472885,42.3211382 C82.8836012,42.3211382 83.4071685,42.2777782 84.0180062,42.1910569 C84.628844,42.1043356 85.2178572,41.8333356 85.7850637,41.3780488 C86.3522701,40.922762 86.8212992,40.185642 87.192165,39.1666667 C87.5630307,38.1476914 87.7484608,36.6842914 87.7484608,34.7764228 L87.7484608,14.1585366 C87.7484608,12.2940286 87.5630307,10.8523086 87.192165,9.83333333 C86.8212992,8.81435805 86.3522701,8.07723805 85.7850637,7.62195122 C85.2178572,7.16666439 84.628844,6.89566439 84.0180062,6.80894309 C83.4071685,6.72222179 82.8836012,6.67886179 82.4472885,6.67886179 Z M82.4472885,6.67886179" id="VIVO" fill="rgb(30,30,30)"></path>
        </g>
    </g>
</svg>